<?xml version="1.0" encoding="iso-8859-1"?>
<!-- Generator: Adobe Illustrator 19.0.0, SVG Export Plug-In . SVG Version: 6.00 Build 0)  -->
<svg version="1.1" id="Layer_1" xmlns="http://www.w3.org/2000/svg" xmlns:xlink="http://www.w3.org/1999/xlink" x="0px" y="0px"
	 viewBox="0 0 512.002 512.002" style="enable-background:new 0 0 512.002 512.002;" xml:space="preserve">
<g>
	<g>
		<path style="fill:#A48164;" d="M264.83,185.38c-4.882,0-8.828-3.946-8.828-8.828V61.794c0-4.882,3.946-8.828,8.828-8.828
			s8.828,3.946,8.828,8.828v114.759C273.657,181.434,269.711,185.38,264.83,185.38"/>
		<path style="fill:#A48164;" d="M8.821,309.001c-1.836,0-3.69-0.565-5.279-1.757c-3.902-2.913-4.705-8.448-1.783-12.359
			l26.403-35.346c2.913-3.902,8.448-4.714,12.359-1.783c3.902,2.913,4.705,8.448,1.783,12.359L15.9,305.461
			C14.161,307.774,11.513,309.001,8.821,309.001"/>
		<path style="fill:#A48164;" d="M361.942,309.243c-2.701,0-5.35-1.236-7.089-3.558l-26.483-35.593
			c-2.913-3.902-2.101-9.437,1.81-12.341c3.911-2.931,9.437-2.101,12.35,1.81l26.483,35.584c2.913,3.911,2.101,9.445-1.81,12.35
			C365.623,308.678,363.769,309.243,361.942,309.243"/>
	</g>
	<polygon style="fill:#DF5548;" points="344.278,512.001 26.485,512.001 26.485,264.829 79.45,194.208 185.381,123.587 
		291.312,194.208 344.278,264.829 	"/>
	<polygon style="fill:#FFFFFF;" points="97.105,335.449 273.657,335.449 273.657,247.173 97.105,247.173 	"/>
	<path style="fill:#FEC24C;" d="M229.519,335.449h-88.276c0-21.327,12.985-40.501,32.786-48.428l11.352-4.537l11.352,4.537
		C216.534,294.948,229.519,314.122,229.519,335.449L229.519,335.449z"/>
	<g>
		<polygon style="fill:#ECE8D8;" points="406.071,512.001 512.002,512.001 512.002,141.242 406.071,141.242 		"/>
		<path style="fill:#ECE8D8;" d="M512.002,105.932H406.071V52.967c0-29.255,23.711-52.966,52.966-52.966
			c29.255,0,52.966,23.711,52.966,52.966V105.932z"/>
	</g>
	<polygon style="fill:#C9C3A7;" points="406.071,141.242 512.002,141.242 512.002,105.932 406.071,105.932 	"/>
	<g>
		<polygon style="fill:#FFFFFF;" points="97.105,512.001 185.381,512.001 185.381,388.415 97.105,388.415 		"/>
		<polygon style="fill:#FFFFFF;" points="185.381,512.001 273.657,512.001 273.657,388.415 185.381,388.415 		"/>
		<polygon style="fill:#FFFFFF;" points="441.381,220.691 476.692,220.691 476.692,185.38 441.381,185.38 		"/>
		<polygon style="fill:#FFFFFF;" points="441.381,300.139 476.692,300.139 476.692,264.829 441.381,264.829 		"/>
		<polygon style="fill:#FFFFFF;" points="441.381,379.587 476.692,379.587 476.692,344.277 441.381,344.277 		"/>
		<polygon style="fill:#FFFFFF;" points="441.381,512.001 476.692,512.001 476.692,423.725 441.381,423.725 		"/>
	</g>
	<g>
		<path style="fill:#EEE9E0;" d="M291.312,97.104c-2.26,0-4.52-0.865-6.241-2.586l-52.965-52.966c-3.452-3.452-3.452-9.031,0-12.482
			s9.031-3.452,12.482,0l52.966,52.966c3.452,3.452,3.452,9.031,0,12.482C295.832,96.239,293.572,97.104,291.312,97.104"/>
		<path style="fill:#EEE9E0;" d="M238.347,97.104c-2.26,0-4.52-0.865-6.241-2.586c-3.452-3.452-3.452-9.031,0-12.482l52.965-52.966
			c3.452-3.452,9.031-3.452,12.482,0s3.452,9.031,0,12.482l-52.966,52.966C242.867,96.239,240.607,97.104,238.347,97.104"/>
	</g>
	<g>
		<polygon style="fill:#A48164;" points="185.381,403.597 262.808,512 273.657,512 273.657,496.817 196.23,388.414 185.381,388.414 
					"/>
		<polygon style="fill:#A48164;" points="273.657,403.597 273.657,388.414 262.808,388.414 185.381,496.817 185.381,512 196.23,512 
					"/>
		<polygon style="fill:#A48164;" points="185.381,403.597 185.381,388.414 174.532,388.414 97.105,496.817 97.105,512 107.955,512 
					"/>
		<polygon style="fill:#A48164;" points="97.105,403.597 174.532,512 185.381,512 185.381,496.817 107.955,388.414 97.105,388.414 
					"/>
	</g>
</g>
<g>
</g>
<g>
</g>
<g>
</g>
<g>
</g>
<g>
</g>
<g>
</g>
<g>
</g>
<g>
</g>
<g>
</g>
<g>
</g>
<g>
</g>
<g>
</g>
<g>
</g>
<g>
</g>
<g>
</g>
</svg>
