<?xml version="1.0" encoding="iso-8859-1"?>
<!-- Generator: Adobe Illustrator 19.0.0, SVG Export Plug-In . SVG Version: 6.00 Build 0)  -->
<svg version="1.1" id="Layer_1" xmlns="http://www.w3.org/2000/svg" xmlns:xlink="http://www.w3.org/1999/xlink" x="0px" y="0px"
	 viewBox="0 0 512 512" style="enable-background:new 0 0 512 512;" xml:space="preserve">
<circle style="fill:#6BC9EF;" cx="256" cy="256" r="256"/>
<path style="fill:#59B8DE;" d="M511.605,270.158C504.241,404.96,392.63,512,256,512c-8.512,0-16.938-0.432-25.24-1.248
	L83.184,363.176l-2.137-164.267l279.115-0.469l15.357,15.876l64.219-16.012L511.605,270.158z"/>
<path style="fill:#F8F8F8;" d="M303.059,250.935l54.719-44.724c1.705-1.396,2.607-3.311,2.607-5.523s-0.902-4.114-2.607-5.51
	l-54.719-44.724c-2.187-1.791-5.028-2.137-7.573-0.927s-4.065,3.62-4.065,6.437v31.109H108.338H83.48
	c-6.165,0-11.218,5.053-11.218,11.23v41.623v112.032c0.062,6.202,4.769,10.934,10.921,11.218l22.72,0.012h2.434
	c106.719,0,213.451,0,320.182,0c6.165,0,11.218-5.041,11.218-11.23v-41.623v-70.409v-41.623c0-6.19-5.065-11.23-11.218-11.23
	h-24.857h-28.144v27.242h33.679c1.878,0.321,3.311,1.989,3.311,3.929v21.682v70.409v21.682c0,1.94-1.433,3.608-3.311,3.941h-3.101
	H105.904c-2.866,0-6.338,0.136-6.412-3.941v-92.091v-21.682c0-1.964,1.433-3.608,3.299-3.929h188.63v31.109
	c0,2.817,1.52,5.226,4.065,6.437S300.872,252.726,303.059,250.935z"/>
<g>
</g>
<g>
</g>
<g>
</g>
<g>
</g>
<g>
</g>
<g>
</g>
<g>
</g>
<g>
</g>
<g>
</g>
<g>
</g>
<g>
</g>
<g>
</g>
<g>
</g>
<g>
</g>
<g>
</g>
</svg>
